<svg xmlns="http://www.w3.org/2000/svg" xmlns:xlink="http://www.w3.org/1999/xlink" viewBox="0,0,256,256" width="48px" height="48px" fill-rule="nonzero"><g fill="#ffffff" fill-rule="nonzero" stroke="none" stroke-width="1" stroke-linecap="butt" stroke-linejoin="miter" stroke-miterlimit="10" stroke-dasharray="" stroke-dashoffset="0" font-family="none" font-weight="none" font-size="none" text-anchor="none" style="mix-blend-mode: normal"><g transform="scale(5.33333,5.33333)"><path d="M24,1c-4.9847,0 -8.8128,4.49108 -9.41016,10h-7.9375c-1.41628,0 -2.57995,1.23081 -2.49609,2.64648l0.35742,6.0918c0.01786,0.54491 0.32996,1.03724 0.81516,1.28589c0.4852,0.24866 1.06711,0.21449 1.51988,-0.08923c0.45277,-0.30372 0.70512,-0.82918 0.6591,-1.37244l-0.32617,-5.5625h33.63672l-1.04102,17.69727c-0.0455,0.54276 0.20675,1.06754 0.65903,1.37102c0.45228,0.30348 1.03351,0.33799 1.51852,0.09014c0.485,-0.24785 0.79757,-0.7391 0.8166,-1.28343l1.07227,-18.22656c0.08368,-1.41515 -1.0774,-2.64844 -2.49414,-2.64844h-7.93945c-0.59736,-5.50892 -4.42546,-10 -9.41016,-10zM24,4c3.04427,0 5.83457,2.90172 6.39258,7h-12.78516c0.558,-4.09828 3.34831,-7 6.39258,-7zM24.07422,17.01172c-3.939,0 -6.91016,2.50422 -6.91016,5.82422c0,3.79 3.47177,5.05617 6.25977,6.07617c3.321,1.214 4.88477,2.01695 4.88477,4.12695c0,1.655 -1.95914,3.00195 -4.36914,3.00195c-2.826,0 -5.29922,-2.10205 -5.32422,-2.12305l-0.125,-0.11523c-0.093,-0.085 -0.21289,-0.13086 -0.33789,-0.13086c-0.019,0 -0.03859,-0.00005 -0.05859,0.00195c-0.144,0.017 -0.27447,0.0968 -0.35547,0.2168l-1.10547,1.62891c-0.145,0.214 -0.10334,0.50397 0.09766,0.66797l0.11328,0.0918c0.786,0.637 3.61375,2.70898 7.09375,2.70898c4.104,0 7.32031,-2.61222 7.32031,-5.94922c0.002,-4.402 -3.78036,-5.78453 -6.81836,-6.89453c-2.941,-1.075 -4.32617,-1.75159 -4.32617,-3.30859c0,-1.666 1.66494,-2.875 3.96094,-2.875c1.669,0 3.14209,0.65973 3.87109,1.05273c0.117,0.063 0.46897,0.2742 0.66797,0.4082l0.13867,0.0918c0.083,0.056 0.17934,0.08398 0.27734,0.08398c0.036,0 0.07142,-0.00277 0.10742,-0.00977c0.133,-0.029 0.24736,-0.11252 0.31836,-0.22852l1.01172,-1.64453c0.142,-0.23 0.07366,-0.53364 -0.15234,-0.68164l-0.16602,-0.10742c-0.849,-0.572 -3.15122,-1.91406 -6.07422,-1.91406zM6.40234,24.13672c-0.42321,-0.01097 -0.83136,0.15739 -1.12376,0.46355c-0.2924,0.30616 -0.44182,0.72161 -0.4114,1.14388l0.91016,15.49023c0,0.00065 0,0.0013 0,0.00195c0.12409,2.09992 1.89075,3.76367 3.99414,3.76367h28.45703c2.10415,0 3.86803,-1.66419 3.99219,-3.76367c0,-0.00065 0,-0.0013 0,-0.00195l0.18164,-3.05273c0.03148,-0.53525 -0.22501,-1.04662 -0.67284,-1.34147c-0.44783,-0.29484 -1.01894,-0.32835 -1.49817,-0.0879c-0.47923,0.24045 -0.79376,0.71833 -0.82509,1.25358l-0.17969,3.05273c-0.03185,0.53852 -0.4582,0.94141 -0.99805,0.94141h-28.45703c-0.54061,0 -0.96809,-0.40138 -1,-0.94141l-0.91016,-15.49023c-0.03566,-0.78597 -0.67248,-1.41086 -1.45898,-1.43164z"></path></g></g></svg>